<svg version="1.1" id="Layer_1" xmlns="http://www.w3.org/2000/svg" xmlns:xlink="http://www.w3.org/1999/xlink" x="0px" y="0px"
	 width="100%" viewBox="0 0 50 50" enable-background="new 0 0 50 50" xml:space="preserve">
<path fill="#FDFFFD" opacity="1.000000" stroke="none" 
	d="
M22.000307,51.000000 
	C14.684175,51.000000 7.867962,51.000000 1.025874,51.000000 
	C1.025874,34.392372 1.025874,17.784695 1.025874,1.088509 
	C17.565485,1.088509 34.131599,1.088509 50.848858,1.088509 
	C50.848858,17.665627 50.848858,34.332649 50.848858,51.000000 
	C41.452614,51.000000 31.976419,51.000000 22.000307,51.000000 
M27.403503,48.864151 
	C33.556522,40.970921 39.176365,32.784451 41.420475,22.796682 
	C43.107857,15.286710 40.765247,8.839505 34.956322,4.798015 
	C29.592323,1.066077 22.653378,1.038370 17.181744,4.727039 
	C11.352577,8.656737 8.882160,15.193871 10.507006,22.655912 
	C12.686652,32.665863 18.235001,40.894043 24.538996,48.681889 
	C24.968704,49.212746 26.113646,49.164642 27.403503,48.864151 
z"/>
<path fill="#15D828" opacity="1.000000" stroke="none" 
	d="
M27.164730,49.124969 
	C26.113646,49.164642 24.968704,49.212746 24.538996,48.681889 
	C18.235001,40.894043 12.686652,32.665863 10.507006,22.655912 
	C8.882160,15.193871 11.352577,8.656737 17.181744,4.727039 
	C22.653378,1.038370 29.592323,1.066077 34.956322,4.798015 
	C40.765247,8.839505 43.107857,15.286710 41.420475,22.796682 
	C39.176365,32.784451 33.556522,40.970921 27.164730,49.124969 
M26.398039,24.967100 
	C30.009399,24.350121 32.500275,22.132496 31.738144,18.595646 
	C31.290016,16.515997 28.836761,13.743877 26.925247,13.422026 
	C25.033375,13.103482 21.941896,14.963644 20.707241,16.775093 
	C18.516129,19.989830 20.711494,23.184689 26.398039,24.967100 
z"/>
<path fill="#F7FEF8" opacity="1.000000" stroke="none" 
	d="
M26.004181,24.967331 
	C20.711494,23.184689 18.516129,19.989830 20.707241,16.775093 
	C21.941896,14.963644 25.033375,13.103482 26.925247,13.422026 
	C28.836761,13.743877 31.290016,16.515997 31.738144,18.595646 
	C32.500275,22.132496 30.009399,24.350121 26.004181,24.967331 
z"/>
</svg>