<svg version="1.1" id="Layer_1" xmlns="http://www.w3.org/2000/svg" xmlns:xlink="http://www.w3.org/1999/xlink" x="0px" y="0px"
	 width="100%" viewBox="0 0 64 64" enable-background="new 0 0 64 64" xml:space="preserve">
<path fill="#000000" opacity="1.000000" stroke="none" 
	d="
M41.000000,65.000000 
	C27.694899,65.000000 14.389799,65.000000 1.042349,65.000000 
	C1.042349,43.740139 1.042349,22.480179 1.042349,1.110108 
	C22.214247,1.110108 43.429256,1.110108 65.000000,1.110108 
	C65.000000,13.685345 65.000000,26.374014 64.715668,39.851601 
	C59.143929,37.902016 61.707188,32.717873 60.728687,28.412497 
	C59.558189,28.136497 58.364388,27.855003 56.876270,27.504112 
	C56.876270,24.333216 56.876270,21.393719 56.876270,18.287834 
	C40.474155,18.287834 24.441975,18.287834 8.331498,18.287834 
	C8.331498,29.282393 8.331498,39.986599 8.331498,50.993366 
	C16.937563,50.993366 25.219299,50.993366 32.077492,50.993366 
	C35.376316,55.651798 38.068150,59.406128 40.685757,63.211517 
	C40.997768,63.665112 40.905094,64.397072 41.000000,65.000000 
z"/>
<path fill="#FB0404" opacity="1.000000" stroke="none" 
	d="
M41.468697,65.000000 
	C40.905094,64.397072 40.997768,63.665112 40.685757,63.211517 
	C38.068150,59.406128 35.376316,55.651798 32.077492,50.993366 
	C25.219299,50.993366 16.937563,50.993366 8.331498,50.993366 
	C8.331498,39.986599 8.331498,29.282393 8.331498,18.287834 
	C24.441975,18.287834 40.474155,18.287834 56.876270,18.287834 
	C56.876270,21.393719 56.876270,24.333216 56.876270,27.504112 
	C58.364388,27.855003 59.558189,28.136497 60.728687,28.412497 
	C61.707188,32.717873 59.143929,37.902016 64.715668,40.320259 
	C65.000000,48.258183 65.000000,56.516361 65.000000,65.000000 
	C57.313927,65.000000 49.625656,65.000000 41.468697,65.000000 
M42.455849,23.003208 
	C32.724628,23.003208 22.993406,23.003208 13.395430,23.003208 
	C13.395430,31.082640 13.395430,38.453754 13.395430,45.836395 
	C20.748505,45.836395 27.704947,45.836395 34.310429,45.836395 
	C37.532265,37.755535 43.005070,33.448483 51.670670,33.810768 
	C51.670670,30.080462 51.670670,26.698055 51.670670,23.003208 
	C48.712914,23.003208 46.077061,23.003208 42.455849,23.003208 
M43.024624,58.533405 
	C44.256245,59.317066 45.394394,60.496113 46.736282,60.813347 
	C51.566212,61.955173 56.035099,61.297016 59.363934,57.128132 
	C61.976078,53.856804 62.857395,50.330746 61.107082,46.272655 
	C59.020473,41.434860 55.872841,38.686615 50.210838,38.907612 
	C46.012405,39.071491 43.068680,40.797905 40.985302,44.180714 
	C37.943321,49.120014 38.597916,53.756081 43.024624,58.533405 
z"/>
<path fill="#000000" opacity="1.000000" stroke="none" 
	d="
M42.948528,23.003208 
	C46.077061,23.003208 48.712914,23.003208 51.670670,23.003208 
	C51.670670,26.698055 51.670670,30.080462 51.670670,33.810768 
	C43.005070,33.448483 37.532265,37.755535 34.310429,45.836395 
	C27.704947,45.836395 20.748505,45.836395 13.395430,45.836395 
	C13.395430,38.453754 13.395430,31.082640 13.395430,23.003208 
	C22.993406,23.003208 32.724628,23.003208 42.948528,23.003208 
M24.999123,29.704142 
	C24.326843,22.287079 19.172533,27.778244 16.376455,25.715408 
	C16.376455,32.075546 16.376455,37.457893 16.376455,42.747223 
	C19.355679,42.747223 21.957373,42.747223 24.999784,42.747223 
	C24.999784,38.556736 24.999784,34.607761 24.999123,29.704142 
z"/>
<path fill="#000000" opacity="1.000000" stroke="none" 
	d="
M42.756447,58.262146 
	C38.597916,53.756081 37.943321,49.120014 40.985302,44.180714 
	C43.068680,40.797905 46.012405,39.071491 50.210838,38.907612 
	C55.872841,38.686615 59.020473,41.434860 61.107082,46.272655 
	C62.857395,50.330746 61.976078,53.856804 59.363934,57.128132 
	C56.035099,61.297016 51.566212,61.955173 46.736282,60.813347 
	C45.394394,60.496113 44.256245,59.317066 42.756447,58.262146 
M52.979679,51.184105 
	C52.979679,48.233261 52.979679,45.282413 52.979679,42.001152 
	C51.037270,42.122318 49.654388,42.208584 48.215908,42.298317 
	C48.215908,45.956936 48.215908,49.230064 48.215908,53.189144 
	C49.967758,52.777603 51.423489,52.435623 52.979679,51.184105 
M52.246384,54.146111 
	C50.876904,54.146111 49.507423,54.146111 48.230255,54.146111 
	C48.230255,56.043446 48.230255,57.296299 48.230255,58.764595 
	C49.819008,58.764595 51.191158,58.764595 52.858120,58.764595 
	C52.858120,57.286278 52.858120,56.029560 52.246384,54.146111 
z"/>
<path fill="#FB0404" opacity="1.000000" stroke="none" 
	d="
M24.999454,30.181465 
	C24.999784,34.607761 24.999784,38.556736 24.999784,42.747223 
	C21.957373,42.747223 19.355679,42.747223 16.376455,42.747223 
	C16.376455,37.457893 16.376455,32.075546 16.376455,25.715408 
	C19.172533,27.778244 24.326843,22.287079 24.999454,30.181465 
z"/>
<path fill="#FB0404" opacity="1.000000" stroke="none" 
	d="
M52.929451,51.638874 
	C51.423489,52.435623 49.967758,52.777603 48.215908,53.189144 
	C48.215908,49.230064 48.215908,45.956936 48.215908,42.298317 
	C49.654388,42.208584 51.037270,42.122318 52.979679,42.001152 
	C52.979679,45.282413 52.979679,48.233261 52.929451,51.638874 
z"/>
<path fill="#FB0404" opacity="1.000000" stroke="none" 
	d="
M52.552254,54.459476 
	C52.858120,56.029560 52.858120,57.286278 52.858120,58.764595 
	C51.191158,58.764595 49.819008,58.764595 48.230255,58.764595 
	C48.230255,57.296299 48.230255,56.043446 48.230255,54.146111 
	C49.507423,54.146111 50.876904,54.146111 52.552254,54.459476 
z"/>
</svg>