<svg version="1.1" id="Layer_1" xmlns="http://www.w3.org/2000/svg" xmlns:xlink="http://www.w3.org/1999/xlink" x="0px" y="0px"
	 width="100%" viewBox="0 0 50 50" enable-background="new 0 0 50 50" xml:space="preserve">
<path fill="#FFFDFD" opacity="1.000000" stroke="none" 
	d="
M22.000307,51.000000 
	C14.684175,51.000000 7.867962,51.000000 1.025874,51.000000 
	C1.025874,34.392372 1.025874,17.784695 1.025874,1.088509 
	C17.565485,1.088509 34.131599,1.088509 50.848858,1.088509 
	C50.848858,17.665627 50.848858,34.332649 50.848858,51.000000 
	C41.452614,51.000000 31.976419,51.000000 22.000307,51.000000 
M27.403465,48.868374 
	C33.549911,40.970539 39.176449,32.786743 41.420231,22.797882 
	C43.107182,15.287935 40.763489,8.834463 34.956646,4.795169 
	C29.597267,1.067137 22.653391,1.041033 17.179243,4.728337 
	C11.355350,8.651226 8.888113,15.195249 10.511054,22.661118 
	C12.687680,32.674053 18.242502,40.898762 24.543171,48.689209 
	C24.972044,49.219490 26.115686,49.171684 27.403465,48.868374 
z"/>
<path fill="#ED0E0E" opacity="1.000000" stroke="none" 
	d="
M27.165186,49.130554 
	C26.115686,49.171684 24.972044,49.219490 24.543171,48.689209 
	C18.242502,40.898762 12.687680,32.674053 10.511054,22.661118 
	C8.888113,15.195249 11.355350,8.651226 17.179243,4.728337 
	C22.653391,1.041033 29.597267,1.067137 34.956646,4.795169 
	C40.763489,8.834463 43.107182,15.287935 41.420231,22.797882 
	C39.176449,32.786743 33.549911,40.970539 27.165186,49.130554 
M26.398197,24.967251 
	C30.016819,24.355982 32.503277,22.134825 31.738775,18.594835 
	C31.289501,16.514488 28.836880,13.740664 26.926109,13.420117 
	C25.031256,13.102240 21.936949,14.960900 20.702396,16.773397 
	C18.509071,19.993504 20.707874,23.191231 26.398197,24.967251 
z"/>
<path fill="#FEF7F7" opacity="1.000000" stroke="none" 
	d="
M26.004089,24.967461 
	C20.707874,23.191231 18.509071,19.993504 20.702396,16.773397 
	C21.936949,14.960900 25.031256,13.102240 26.926109,13.420117 
	C28.836880,13.740664 31.289501,16.514488 31.738775,18.594835 
	C32.503277,22.134825 30.016819,24.355982 26.004089,24.967461 
z"/>
</svg>